<?xml version="1.0" ?><svg enable-background="new 0 0 48 48" id="Layer_1" version="1.1" viewBox="0 0 48 48" xml:space="preserve" xmlns="http://www.w3.org/2000/svg" xmlns:xlink="http://www.w3.org/1999/xlink"><g><g><path d="M40,11v32c0,1.6499634-1.3499756,3-3,3H11c-1.6500244,0-3-1.3500366-3-3V6c0-2.210022,1.789978-4,4-4h19    c0.2700195,0,0.5200195,0.1099854,0.710022,0.289978l8,8C39.8900146,10.4799805,40,10.7299805,40,11z" fill="#009CE7"/><path d="M40,11.5799561V14h-8c-0.5499878,0-1-0.4500122-1-1V4h1    c0.2700195,0,0.5200195,0.1099854,0.710022,0.289978L40,11.5799561z" fill="#1E81CE"/><path d="M40,11v1h-9c-0.5499878,0-1-0.4500122-1-1V2h1c0.2700195,0,0.5200195,0.1099854,0.710022,0.289978l8,8    C39.8900146,10.4799805,40,10.7299805,40,11z" fill="#EBEBEB"/></g><g><g><g><path d="M23,16c-4.960022,0-9,4.039978-9,9c0,4.9599609,4.039978,9,9,9s9-4.0400391,9-9      C32,20.039978,27.960022,16,23,16z M23,32c-3.8599854,0-7-3.1400146-7-7s3.1400146-7,7-7s7,3.1400146,7,7S26.8599854,32,23,32z" fill="#1E81CE"/></g><g><path d="M28,25c0,0.5499878-0.4500122,1-1,1h-3v3c0,0.5499878-0.4500122,1-1,1s-1-0.4500122-1-1v-3h-3      c-0.5499878,0-1-0.4500122-1-1s0.4500122-1,1-1h3v-3c0-0.5499878,0.4500122-1,1-1s1,0.4500122,1,1v3h3      C27.5499878,24,28,24.4500122,28,25z" fill="#1E81CE"/></g></g><g><g><path d="M24,15c-4.960022,0-9,4.039978-9,9c0,4.9599609,4.039978,9,9,9s9-4.0400391,9-9      C33,19.039978,28.960022,15,24,15z M24,31c-3.8599854,0-7-3.1400146-7-7s3.1400146-7,7-7s7,3.1400146,7,7S27.8599854,31,24,31z" fill="#EBEBEB"/></g><g><path d="M29,24c0,0.5499878-0.4500122,1-1,1h-3v3c0,0.5499878-0.4500122,1-1,1s-1-0.4500122-1-1v-3h-3      c-0.5499878,0-1-0.4500122-1-1s0.4500122-1,1-1h3v-3c0-0.5499878,0.4500122-1,1-1s1,0.4500122,1,1v3h3      C28.5499878,23,29,23.4500122,29,24z" fill="#EBEBEB"/></g></g></g></g></svg>